<?xml version="1.0" encoding="UTF-8"?>
<svg width="11px" height="14px" viewBox="0 0 11 14" version="1.1" xmlns="http://www.w3.org/2000/svg" xmlns:xlink="http://www.w3.org/1999/xlink">
    <!-- Generator: Sketch 59.1 (86144) - https://sketch.com -->
    <title>DDF4AC9D-11DD-443A-BF4F-E8A7EE519C6A</title>
    <desc>Created with Sketch.</desc>
    <g id="视觉规范" stroke="none" stroke-width="1" fill="none" fill-rule="evenodd">
        <g transform="translate(-327.000000, -4228.000000)" fill="#00D6C2" fill-rule="nonzero" id="icon_stop_hover">
            <g transform="translate(327.000000, 4228.000000)">
                <path d="M1.07263779,-1.58983937e-13 C0.480266416,-1.58983937e-13 0,0.512033932 0,1.14357296 L0,12.5792489 C0,13.2107893 0.480266416,13.7228219 1.07263779,13.7228219 C1.66499308,13.7228219 2.14527558,13.210788 2.14527558,12.5792489 L2.14527558,1.14357296 C2.14527558,0.512032592 1.66499308,-1.58983937e-13 1.07263779,-1.58983937e-13 Z M9.07263779,-3.17967874e-13 C8.4802825,-3.17967874e-13 8,0.512033932 8,1.14357296 L8,12.5792489 C8,13.2107893 8.4802825,13.7228219 9.07263779,13.7228219 C9.66500916,13.7228219 10.1452756,13.210788 10.1452756,12.5792489 L10.1452756,1.14357296 C10.1452756,0.512032592 9.66500916,-3.17967874e-13 9.07263779,-3.17967874e-13 Z" id="形状"></path>
            </g>
        </g>
    </g>
</svg>