<?xml version="1.0" encoding="UTF-8"?>
<svg width="24px" height="24px" viewBox="0 0 24 24" version="1.1" xmlns="http://www.w3.org/2000/svg" xmlns:xlink="http://www.w3.org/1999/xlink">
    <!-- Generator: Sketch 59.1 (86144) - https://sketch.com -->
    <title>529DC882-E2A0-463A-A74B-CB29FB7F8BAC</title>
    <desc>Created with Sketch.</desc>
    <g id="视觉规范" stroke="none" stroke-width="1" fill="none" fill-rule="evenodd">
        <g transform="translate(-809.000000, -3274.000000)" fill="" id="icon_loading">
            <path d="M821,3292 C821.653753,3292 822.183724,3292.53246 822.183724,3293.18541 L822.183724,3296.81459 C822.183724,3297.42836 821.721935,3297.93318 821.12178,3297.99388 L821,3298 C820.346247,3298 819.816276,3297.46754 819.816276,3296.81459 L819.816276,3293.18541 C819.816276,3292.57164 820.278065,3292.06682 820.87822,3292.00612 L821,3292 Z M817.651085,3291.42006 L817.766954,3291.47885 C818.333121,3291.80532 818.525531,3292.5311 818.198655,3293.09657 L816.381824,3296.23954 C816.075929,3296.76871 815.427717,3296.97581 814.879125,3296.73378 L814.763255,3296.675 C814.197089,3296.34853 814.004679,3295.62274 814.331555,3295.05727 L816.148385,3291.91431 C816.45428,3291.38513 817.102493,3291.17804 817.651085,3291.42006 Z M825.851615,3291.91431 L827.668445,3295.05727 C827.97434,3295.58645 827.829804,3296.25067 827.34565,3296.60417 L827.236745,3296.675 C826.670578,3297.00147 825.945052,3296.80501 825.618176,3296.23954 L823.801345,3293.09657 C823.49545,3292.5674 823.639986,3291.90317 824.12414,3291.54968 L824.233046,3291.47885 C824.799212,3291.15237 825.524739,3291.34884 825.851615,3291.91431 Z M815.48104,3288.77584 L815.551958,3288.88462 C815.878834,3289.45008 815.682127,3290.17472 815.115961,3290.50119 L811.969119,3292.31578 C811.439293,3292.6213 810.77425,3292.47694 810.420317,3291.99339 L810.349398,3291.88462 C810.022522,3291.31915 810.219229,3290.59451 810.785395,3290.26804 L813.932238,3288.45345 C814.462063,3288.14793 815.127107,3288.29229 815.48104,3288.77584 Z M827.594273,3288.45345 L830.741116,3290.26804 C831.270941,3290.57356 831.478291,3291.22097 831.235968,3291.76889 L831.177112,3291.88462 C830.850236,3292.45008 830.123558,3292.64226 829.557392,3292.31578 L826.410549,3290.50119 C825.880723,3290.19567 825.673373,3289.54826 825.915697,3289.00034 L825.974553,3288.88462 C826.301429,3288.31915 827.028107,3288.12697 827.594273,3288.45345 Z M831.813131,3284.58696 C832.427653,3284.58696 832.933093,3285.04819 832.993872,3285.6476 L833,3285.76923 C833,3286.42218 832.466883,3286.9515 831.813131,3286.9515 L828.17947,3286.9515 C827.564949,3286.9515 827.059509,3286.49028 826.998729,3285.89086 L826.992602,3285.76923 C826.992602,3285.11628 827.525718,3284.58696 828.17947,3284.58696 L831.813131,3284.58696 Z M813.82053,3284.58696 C814.435051,3284.58696 814.940491,3285.04819 815.001271,3285.6476 L815.007398,3285.76923 C815.007398,3286.42218 814.474282,3286.9515 813.82053,3286.9515 L810.186869,3286.9515 C809.572347,3286.9515 809.066907,3286.49028 809.006128,3285.89086 L809,3285.76923 C809,3285.11628 809.533117,3284.58696 810.186869,3284.58696 L813.82053,3284.58696 Z M831.106194,3280.00661 L831.177112,3280.11538 C831.503988,3280.68085 831.307282,3281.40549 830.741116,3281.73196 L827.594273,3283.54655 C827.064447,3283.85207 826.399404,3283.70771 826.045471,3283.22416 L825.974553,3283.11538 C825.647676,3282.54992 825.844383,3281.82528 826.410549,3281.49881 L829.557392,3279.68422 C830.087218,3279.3787 830.752261,3279.52306 831.106194,3280.00661 Z M811.969119,3279.68422 L815.115961,3281.49881 C815.645787,3281.80433 815.853137,3282.45174 815.610814,3282.99966 L815.551958,3283.11538 C815.225082,3283.68085 814.498404,3283.87303 813.932238,3283.54655 L810.785395,3281.73196 C810.255569,3281.42644 810.048219,3280.77903 810.290543,3280.23111 L810.349398,3280.11538 C810.676275,3279.54992 811.402953,3279.35774 811.969119,3279.68422 Z M827.120875,3275.72776 L827.236745,3275.78654 C827.802911,3276.11301 827.995321,3276.8388 827.668445,3277.40426 L825.851615,3280.54723 C825.54572,3281.07641 824.897507,3281.2835 824.348915,3281.04147 L824.233046,3280.98269 C823.666879,3280.65622 823.474469,3279.93043 823.801345,3279.36497 L825.618176,3276.222 C825.924071,3275.69283 826.572283,3275.48573 827.120875,3275.72776 Z M816.381824,3276.222 L818.198655,3279.36497 C818.50455,3279.89414 818.360014,3280.55836 817.87586,3280.91186 L817.766954,3280.98269 C817.200788,3281.30917 816.475261,3281.1127 816.148385,3280.54723 L814.331555,3277.40426 C814.02566,3276.87509 814.170196,3276.21087 814.65435,3275.85737 L814.763255,3275.78654 C815.329422,3275.46007 816.054948,3275.65653 816.381824,3276.222 Z M821,3274 C821.653753,3274 822.183724,3274.53246 822.183724,3275.18541 L822.183724,3278.81459 C822.183724,3279.42836 821.721935,3279.93318 821.12178,3279.99388 L821,3280 C820.346247,3280 819.816276,3279.46754 819.816276,3278.81459 L819.816276,3275.18541 C819.816276,3274.57164 820.278065,3274.06682 820.87822,3274.00612 L821,3274 Z"></path>
        </g>
    </g>
</svg>