<?xml version="1.0" encoding="UTF-8"?>
<svg width="24px" height="21px" viewBox="0 0 24 21" version="1.1" xmlns="http://www.w3.org/2000/svg" xmlns:xlink="http://www.w3.org/1999/xlink">
    <!-- Generator: Sketch 59.1 (86144) - https://sketch.com -->
    <title>56ED7A93-F319-4DB4-A55F-1F428CB66EEC</title>
    <desc>Created with Sketch.</desc>
    <g id="视觉规范" stroke="none" stroke-width="1" fill="none" fill-rule="evenodd">
        <g transform="translate(-310.000000, -3349.000000)" fill="#8C909D" fill-rule="nonzero" id="icon_tupian_normal">
            <g transform="translate(310.000000, 3349.000000)">
                <path d="M20.4127978,20.1252902 L3.16255656,20.1252902 C1.41900165,20.1252902 4.26325641e-14,18.706315 4.26325641e-14,16.9627337 L4.26325641e-14,3.16255656 C4.26325641e-14,1.41900165 1.41897521,7.81597009e-14 3.16255656,7.81597009e-14 L20.4127978,7.81597009e-14 C22.1563527,7.81597009e-14 23.5753544,1.41897521 23.5753544,3.16255656 L23.5753544,16.9627337 C23.5753544,18.706315 22.1563527,20.1252902 20.4127978,20.1252902 Z M3.16255656,1.72504528 C2.36968305,1.72504528 1.72504528,2.36970949 1.72504528,3.16258301 L1.72504528,16.9627337 C1.72504528,17.7556072 2.36970949,18.400245 3.16255656,18.400245 L20.4127978,18.400245 C21.2056713,18.400245 21.8503091,17.7556072 21.8503091,16.9627337 L21.8503091,3.16255656 C21.8503091,2.36968305 21.2056713,1.72504528 20.4127978,1.72504528 L3.16255656,1.72504528 L3.16255656,1.72504528 Z M10.7776751,16.550076 C10.5569609,16.550076 10.3362996,16.4658307 10.1678354,16.2973401 L7.32761097,13.4571421 L4.70357907,16.0817557 C4.36667724,16.4186311 3.82082804,16.4186311 3.48392621,16.0817557 C3.14705082,15.7448539 3.14705082,15.1990047 3.48392621,14.8621029 L6.71779776,11.627676 C7.041214,11.3042598 7.61400794,11.3042598 7.93742418,11.627676 L11.3874883,15.0777401 C11.7243901,15.414642 11.7243901,15.9604647 11.3874883,16.2973666 C11.2190242,16.4658571 10.9983628,16.550076 10.7776751,16.550076 L10.7776751,16.550076 Z M19.4327125,15.5971456 C19.2120248,15.5971456 18.9913634,15.5128738 18.8228993,15.3444097 L13.9420667,10.4635771 L11.7049127,12.7007576 C11.3680108,13.0376594 10.8221881,13.0376594 10.4852598,12.7007576 C10.1483844,12.3638822 10.1483844,11.818033 10.4852598,11.4811311 L13.3322535,8.63416389 C13.6691289,8.29723562 14.2149781,8.29723562 14.5518799,8.63416389 L20.0425522,14.1248097 C20.379454,14.4617115 20.379454,15.0075343 20.0425522,15.3444361 C19.8741145,15.5129003 19.6534003,15.5971456 19.4327125,15.5971456 L19.4327125,15.5971456 Z M8.85536469,10.3255852 C7.11183622,10.3255852 5.69280813,8.90660994 5.69280813,7.16302859 C5.69280813,5.41944723 7.11180978,4.00049847 8.85536469,4.00049847 C10.5989196,4.00049847 12.0179213,5.41947367 12.0179213,7.16302859 C12.0179213,8.9065835 10.5989196,10.3255852 8.85536469,10.3255852 Z M8.85536469,5.7255173 C8.06249117,5.7255173 7.4178534,6.37018151 7.4178534,7.16302859 C7.4178534,7.95590211 8.06251762,8.60056632 8.85536469,8.60056632 C9.64821177,8.60056632 10.2929024,7.95590211 10.2929024,7.16302859 C10.2929024,6.37018151 9.64823821,5.7255173 8.85536469,5.7255173 Z" id="形状"></path>
            </g>
        </g>
    </g>
</svg>