<?xml version="1.0" encoding="UTF-8"?>
<svg width="16px" height="14px" viewBox="0 0 16 14" version="1.1" xmlns="http://www.w3.org/2000/svg" xmlns:xlink="http://www.w3.org/1999/xlink">
    <!-- Generator: Sketch 59.1 (86144) - https://sketch.com -->
    <title>1AF96945-BE0A-4A9F-9110-E9EADFB8CCAE</title>
    <desc>Created with Sketch.</desc>
    <g id="视觉规范" stroke="none" stroke-width="1" fill="none" fill-rule="evenodd">
        <g transform="translate(-828.000000, -3204.000000)" fill="#E4E4E4" fill-rule="nonzero" id="icon_share_hover">
            <g transform="translate(828.000000, 3204.000000)">
                <g id="分享">
                    <path d="M3.30030476,8.9999425 C6.46292833,5.26996449 11.1038849,6.05558316 11.1038849,6.05558316 L11.1038849,9.03157977 L16,4.51559668 L11.1035401,0 L11.1035401,2.9959772 C3.75900697,2.94435934 3.30030476,8.9999425 3.30030476,8.9999425 L3.30030476,8.9999425 Z M1.63618677,1.999862 L6.85932603,1.999862 L6.85932603,0.325743148 L0.00531351606,0.325743148 L0.00531351606,1.99949169 L1.20403647,1.99949169 L0,2.00894262 L0,12.056264 L1.63617109,12.057713 L1.63617109,1.999862 L1.63618677,1.999862 Z M13.0546977,12.0595485 L0.00319751409,12.0595485 L0.00319751409,13.7307692 L13.0546977,13.7307692 L13.0546977,13.7285796 L14.6859001,13.7307692 L14.6859001,9.03919526 L13.0546977,9.03919526 L13.0546977,12.0595324 L13.0546977,12.0595485 Z" id="形状"></path>
                </g>
            </g>
        </g>
    </g>
</svg>