<?xml version="1.0" encoding="UTF-8"?>
<svg width="22px" height="20px" viewBox="0 0 22 20" version="1.1" xmlns="http://www.w3.org/2000/svg" xmlns:xlink="http://www.w3.org/1999/xlink">
    <!-- Generator: Sketch 59.1 (86144) - https://sketch.com -->
    <title>23104356-B8C7-4A58-B177-376C95CB1CC1</title>
    <desc>Created with Sketch.</desc>
    <g id="视觉规范" stroke="none" stroke-width="1" fill="none" fill-rule="evenodd">
        <g transform="translate(-320.000000, -3276.000000)" fill="#E4E4E4" fill-rule="nonzero" id="icon_comment_normal">
            <path d="M322.752596,3276 C321.206649,3276.02583 319.974457,3277.29378 320.000402,3278.83204 C320.000498,3278.83769 320.00061,3278.84334 320.00074,3278.84899 L320.00074,3290.13058 C320.00074,3291.69753 321.273276,3293.13785 322.816225,3293.13785 L326.999693,3293.13785 C327.715495,3293.91341 330.769573,3295.89187 330.769573,3295.89187 C330.894045,3296.02736 331.105335,3296.0368 331.241503,3295.91295 C331.248875,3295.90624 331.255941,3295.89921 331.26268,3295.89187 C331.26268,3295.89187 333.457808,3294.53069 334.889401,3293.13785 L339.184216,3293.13785 C340.743072,3293.13785 341.9997,3291.69752 341.9997,3290.13058 L341.9997,3278.83316 C342.015607,3277.26622 340.774884,3276 339.263749,3276 L322.752596,3276 Z"></path>
        </g>
    </g>
</svg>