<?xml version="1.0" encoding="UTF-8"?>
<svg width="16px" height="15px" viewBox="0 0 16 15" version="1.1" xmlns="http://www.w3.org/2000/svg" xmlns:xlink="http://www.w3.org/1999/xlink">
    <!-- Generator: Sketch 59.1 (86144) - https://sketch.com -->
    <title>5F0A576A-46C6-43E8-B10D-127F215811B7</title>
    <desc>Created with Sketch.</desc>
    <g id="视觉规范" stroke="none" stroke-width="1" fill="none" fill-rule="evenodd">
        <g transform="translate(-710.000000, -3635.000000)" fill="#8C909D" fill-rule="nonzero" id="icon_lianjie">
            <g transform="translate(710.000000, 3635.000000)">
                <path d="M10.6303562,6.63931779 C10.6218947,6.62366564 10.6168178,6.60840472 10.6092025,6.59314394 C10.6062409,6.59040481 10.6062409,6.58805698 10.6037025,6.58297004 C10.4124731,6.21083985 10.0008231,5.96979729 9.54390417,6.00305736 C8.94652513,6.04923122 8.49764431,6.55479591 8.5454509,7.13196837 C8.55856617,7.28066379 8.60129664,7.41683736 8.66771909,7.53970719 C8.97021593,8.19944518 8.83737195,9.00239815 8.2797614,9.54396482 L5.35844125,12.3711346 L5.35844133,12.3711345 C4.67519021,13.0427001 3.53268885,13.0748191 2.80660105,12.4428749 C2.77996637,12.4196937 2.75409957,12.3957693 2.72903627,12.3711346 C2.00388864,11.6707007 2.00388864,10.531615 2.72903627,9.83117818 L3.81802732,8.77935367 L3.80998893,8.77152761 L3.80998893,8.77152761 C4.07279829,8.54826957 4.20994566,8.2255947 4.18187045,7.89657265 C4.1340631,7.31940019 3.61072143,6.88544412 3.01334239,6.93161769 L3.01334232,6.9316177 C2.73547493,6.95311352 2.4778969,7.07483127 2.29623278,7.27048641 L2.29369433,7.26774728 L1.18355017,8.34031144 C-0.394516724,9.86443801 -0.394516724,12.3327785 1.18355017,13.8569051 C2.76076098,15.3810316 5.31570459,15.3810316 6.89334344,13.8569051 L9.82270474,11.0266105 C11.0496167,9.83900409 11.3153077,8.08126379 10.6303521,6.63931531 L10.6303562,6.63931779 Z" id="路径"></path>
                <path d="M14.818667,1.14340285 C13.240602,-0.381134285 10.6852486,-0.381134285 9.1076116,1.14340285 L6.17825376,3.97412053 C4.95091978,5.15978287 4.68522907,6.91792608 5.36806969,8.36068024 C5.37610807,8.37594117 5.38118495,8.39120223 5.38922338,8.40685454 C5.39176181,8.40920238 5.39176181,8.41194154 5.39430026,8.41702853 C5.5859529,8.78877064 5.99760244,9.03020718 6.4545208,8.99694679 C7.05189915,8.95077249 7.50077944,8.44520294 7.4529729,7.86763326 L7.45297295,7.86763374 C7.44084875,7.72560227 7.39934087,7.5870477 7.3307052,7.45950075 C7.02820872,6.80014809 7.16105255,5.99679573 7.71866243,5.45522386 L10.6429449,2.62959641 L10.6429448,2.62959652 C11.3260713,1.95791703 12.4685575,1.92561671 13.1947667,2.55745174 C13.2215557,2.58075933 13.2475681,2.60481885 13.2727677,2.62959624 C13.9979145,3.33003693 13.9979145,4.4695295 13.2727677,5.17035479 L12.183778,6.22258107 L12.1918164,6.23040722 L12.1918165,6.23040713 C11.928905,6.45362772 11.791608,6.77629014 11.8195119,7.10537049 C11.8677422,7.68294017 12.3906603,8.11650875 12.9884621,8.07033473 L12.9884621,8.07033473 C13.2662665,8.04893938 13.523835,7.92736581 13.7055708,7.73185443 L13.7081092,7.73420227 L14.8186755,6.6616278 C16.3937748,5.13709066 16.3937748,2.66520571 14.8186755,1.14341164 L14.818667,1.14340285 Z" id="路径"></path>
            </g>
        </g>
    </g>
</svg>