<?xml version="1.0" encoding="UTF-8"?>
<svg width="25px" height="21px" viewBox="0 0 25 21" version="1.1" xmlns="http://www.w3.org/2000/svg" xmlns:xlink="http://www.w3.org/1999/xlink">
    <!-- Generator: Sketch 59.1 (86144) - https://sketch.com -->
    <title>6F5D3DCE-F852-423E-995F-35F24238C78E</title>
    <desc>Created with Sketch.</desc>
    <g id="视觉规范" stroke="none" stroke-width="1" fill="none" fill-rule="evenodd">
        <g transform="translate(-523.000000, -3349.000000)" id="icon_shipin_hover">
            <g transform="translate(523.749187, 3349.000000)">
                <path d="M20.4127978,20.1252902 L3.16255656,20.1252902 C1.41900165,20.1252902 4.26325641e-14,18.706315 4.26325641e-14,16.9627337 L4.26325641e-14,3.16255656 C4.26325641e-14,1.41900165 1.41897521,7.81597009e-14 3.16255656,7.81597009e-14 L20.4127978,7.81597009e-14 C22.1563527,7.81597009e-14 23.5753544,1.41897521 23.5753544,3.16255656 L23.5753544,16.9627337 C23.5753544,18.706315 22.1563527,20.1252902 20.4127978,20.1252902 Z M3.16255656,1.72504528 C2.36968305,1.72504528 1.72504528,2.36970949 1.72504528,3.16258301 L1.72504528,16.9627337 C1.72504528,17.7556072 2.36970949,18.400245 3.16255656,18.400245 L20.4127978,18.400245 C21.2056713,18.400245 21.8503091,17.7556072 21.8503091,16.9627337 L21.8503091,3.16255656 C21.8503091,2.36968305 21.2056713,1.72504528 20.4127978,1.72504528 L3.16255656,1.72504528 L3.16255656,1.72504528 Z" id="形状" fill="#2A3542" fill-rule="nonzero"></path>
                <path d="M12.4620389,9.43898921 L10.7659021,12.3466523 L14.1581757,12.3466523 L12.4620389,9.43898921 Z" id="三角形" stroke="#2A3542" stroke-width="3" transform="translate(12.462039, 10.154345) rotate(-270.000000) translate(-12.462039, -10.154345) "></path>
            </g>
        </g>
    </g>
</svg>