<?xml version="1.0" encoding="UTF-8"?>
<svg width="5px" height="22px" viewBox="0 0 5 22" version="1.1" xmlns="http://www.w3.org/2000/svg" xmlns:xlink="http://www.w3.org/1999/xlink">
    <!-- Generator: Sketch 59.1 (86144) - https://sketch.com -->
    <title>C42FD872-6B70-4661-9DFE-E812707FA3F9</title>
    <desc>Created with Sketch.</desc>
    <g id="视觉规范" stroke="none" stroke-width="1" fill="none" fill-rule="evenodd">
        <g transform="translate(-797.000000, -3131.000000)" fill="#2A3542" fill-rule="nonzero" id="icon_more">
            <g transform="translate(797.000000, 3131.000000)">
                <path d="M2.5000128,21.9173107 L2.50001287,21.9173107 C3.81076323,21.9173107 4.87337306,20.8547825 4.87337306,19.5440364 C4.87337306,18.2332861 3.81084487,17.1706762 2.50009881,17.1706762 C2.5000687,17.1706762 2.5000386,17.1706762 2.50000849,17.1706762 L2.50000849,17.1706762 C1.18925814,17.1706762 0.126648306,18.2332044 0.126648306,19.5439505 C0.126648306,20.8547008 1.1891765,21.9173107 2.49992255,21.9173107 C2.49995266,21.9173107 2.49998277,21.9173107 2.50001288,21.9173107 L2.5000128,21.9173107 Z" id="路径"></path>
                <path d="M2.5000128,13.37333 L2.50001274,13.37333 C3.8107631,13.37333 4.87332996,12.3107567 4.87332996,11.0000128 C4.87332996,9.68926245 3.81075665,8.62669559 2.50001274,8.62669559 C2.50001271,8.62669559 2.5000127,8.62669559 2.50001266,8.62669559 L2.50001279,8.62669559 C1.18926244,8.62669559 0.126695574,9.68926889 0.126695574,11.0000128 C0.126695574,12.3107632 1.18926888,13.37333 2.50001279,13.37333 C2.50001283,13.37333 2.50001284,13.37333 2.50001288,13.37333 L2.5000128,13.37333 Z" id="路径"></path>
                <path d="M2.5000128,4.82937085 L2.50001287,4.82937085 C3.81076323,4.82937085 4.87337306,3.76684266 4.87337306,2.45609661 C4.87337306,1.14534625 3.81084487,0.082736424 2.50009881,0.082736424 C2.5000687,0.082736424 2.5000386,0.082736424 2.50000849,0.082736424 L2.50000849,0.082736424 C1.18925814,0.082736424 0.126648306,1.14526461 0.126648306,2.45601067 C0.126648306,3.76676102 1.1891765,4.82937085 2.49992255,4.82937085 C2.49995266,4.82937085 2.49998277,4.82937085 2.50001288,4.82937085 L2.5000128,4.82937085 Z" id="路径"></path>
            </g>
        </g>
    </g>
</svg>