<?xml version="1.0" encoding="UTF-8"?>
<svg width="22px" height="23px" viewBox="0 0 22 23" version="1.1" xmlns="http://www.w3.org/2000/svg" xmlns:xlink="http://www.w3.org/1999/xlink">
    <!-- Generator: Sketch 59.1 (86144) - https://sketch.com -->
    <title>52BCF347-0946-4F67-9830-68FE4434EAA6</title>
    <desc>Created with Sketch.</desc>
    <g id="视觉规范" stroke="none" stroke-width="1" fill="none" fill-rule="evenodd">
        <g transform="translate(-406.000000, -3274.000000)" fill="#8C909D" fill-rule="nonzero" id="icon_like_hover">
            <g transform="translate(406.000000, 3274.000000)">
                <path d="M20.3062129,9.02089136 L14.3090253,9.02089136 C16.632892,0.438341916 12.7078933,1.56319402e-13 12.7078933,1.56319402e-13 C11.0443493,1.56319402e-13 11.3891997,1.31545587 11.2633997,1.53478753 C11.2633997,5.73202718 6.80530079,9.02093862 6.80530079,9.02093862 L6.80530079,20.9236421 C6.80530079,22.0985771 8.40643279,22.5217113 9.03452278,22.5217113 L18.0453229,22.5217113 C18.8933685,22.5217113 19.583939,20.2977122 19.583939,20.2977122 C21.813194,12.7174078 21.813194,10.4620078 21.813194,10.4620078 C21.813194,8.89585945 20.30622,9.02099534 20.30622,9.02099534 L20.30622,9.02099534 L20.30622,9.02099534 L20.3062129,9.02089136 Z" id="路径"></path>
                <path d="M4.34419101,9.02483804 L0.753086443,9.02483804 C0.0114524743,9.02483804 -2.70894418e-14,9.75328016 -2.70894418e-14,9.75328016 L0.741633968,21.7575576 C0.741633968,22.5216097 1.50697404,22.5216097 1.50697404,22.5216097 L4.61507062,22.5216097 C5.26258208,22.5216097 5.25684018,22.016186 5.25684018,22.016186 L5.25684018,9.93514904 C5.25684018,9.01320596 4.34412011,9.02483804 4.34412011,9.02483804 L4.34412011,9.02483804 L4.34412011,9.02483804 L4.34419101,9.02483804 Z" id="路径"></path>
            </g>
        </g>
    </g>
</svg>