<?xml version="1.0" encoding="UTF-8"?>
<svg width="22px" height="18px" viewBox="0 0 22 18" version="1.1" xmlns="http://www.w3.org/2000/svg" xmlns:xlink="http://www.w3.org/1999/xlink">
    <!-- Generator: Sketch 59.1 (86144) - https://sketch.com -->
    <title>7B2378B2-A268-418C-91FD-835AA9C36668</title>
    <desc>Created with Sketch.</desc>
    <g id="视觉规范" stroke="none" stroke-width="1" fill="none" fill-rule="evenodd">
        <g transform="translate(-470.000000, -3277.000000)" fill="#8C909D" fill-rule="nonzero" id="icon_share1_hover">
            <path d="M470.974728,3294.95695 C470.928842,3294.95695 470.882955,3294.95695 470.83644,3294.94152 C470.31409,3294.86438 469.945114,3294.38482 470.006715,3293.85898 C470.483178,3289.35976 472.066571,3286.03562 474.694669,3283.9644 C476.585438,3282.46466 478.983475,3281.62961 481.812085,3281.47533 L482.396664,3281.44383 L482.396664,3278.24377 C482.396664,3276.97609 483.548851,3276.69774 484.163603,3277.31615 L491.341986,3284.65994 C492.249655,3285.58755 492.20314,3286.54603 491.2961,3287.47364 L484.302509,3294.63294 C483.564556,3295.37478 482.396026,3294.92672 482.396026,3293.87503 L482.396026,3290.44292 L481.673159,3290.44292 C479.045056,3290.44292 474.264706,3290.96876 471.758562,3294.50888 C471.605189,3294.80266 471.297813,3294.95758 470.974723,3294.95758 L470.974728,3294.95695 Z"></path>
        </g>
    </g>
</svg>