<?xml version="1.0" encoding="UTF-8"?>
<svg width="16px" height="21px" viewBox="0 0 16 21" version="1.1" xmlns="http://www.w3.org/2000/svg" xmlns:xlink="http://www.w3.org/1999/xlink">
    <!-- Generator: Sketch 59.1 (86144) - https://sketch.com -->
    <title>949BAD37-2A7E-4B33-92DB-FE248E384C36</title>
    <desc>Created with Sketch.</desc>
    <g id="视觉规范" stroke="none" stroke-width="1" fill="none" fill-rule="evenodd">
        <g transform="translate(-305.000000, -3132.000000)" fill="#2A3542" fill-rule="nonzero" id="icon_suo_2">
            <g transform="translate(305.000000, 3132.000000)">
                <path d="M14.7084447,8.80448418 L13.2275567,8.80448418 L13.2275567,5.30843194 C13.2275567,2.38120545 10.8844525,0 8.00088845,0 C5.11732441,0 2.77066643,2.38122596 2.77066643,5.30843194 L2.77066643,8.80538653 L1.29155534,8.80538653 C0.578667408,8.80447348 0,9.39064726 0,10.1146927 L0,19.6861288 C0,20.412912 0.577776957,21 1.29155534,21 L14.711112,21 C15.422223,21 16,20.412912 16,19.6870414 L16,10.1165076 C16,9.39246425 15.422223,8.80537627 14.7084447,8.80537627 L14.7084447,8.80448418 Z M8.72623072,15.1510636 L8.72623072,17.2410168 L8.72623073,17.2410161 C8.72574202,17.3364688 8.65027126,17.4135846 8.55734251,17.4135846 L7.44623128,17.4135846 L7.44623129,17.4135846 C7.35280939,17.4140898 7.27654166,17.3369735 7.27556476,17.2410167 L7.27556476,15.1510635 L7.27556456,15.1510634 C6.73757639,14.8786743 6.39578893,14.3172355 6.39289796,13.7011494 C6.39289796,12.8008884 7.11289752,12.0686254 7.99911993,12.0686254 C8.88800771,12.0686254 9.60800729,12.8008863 9.60800729,13.7011494 L9.60800729,13.7011448 C9.6061205,14.3172739 9.26445689,14.8790778 8.72623313,15.1510609 L8.72623072,15.1510636 Z M11.2222289,8.80540704 L4.77955596,8.80540704 L4.77955596,5.39427773 C4.77955596,3.59101581 6.22577826,2.12284778 8.00177092,2.12284778 C9.77776957,2.12284778 11.2222289,3.59102401 11.2222289,5.39427773 L11.2222289,8.80358184 L11.2222289,8.80540704 Z" id="形状"></path>
            </g>
        </g>
    </g>
</svg>