<?xml version="1.0" encoding="UTF-8"?>
<svg width="22px" height="20px" viewBox="0 0 22 20" version="1.1" xmlns="http://www.w3.org/2000/svg" xmlns:xlink="http://www.w3.org/1999/xlink">
    <!-- Generator: Sketch 59.1 (86144) - https://sketch.com -->
    <title>72722FA8-748B-4B1B-848E-C4FDBBBB3F4E</title>
    <desc>Created with Sketch.</desc>
    <g id="视觉规范" stroke="none" stroke-width="1" fill="none" fill-rule="evenodd">
        <g transform="translate(-438.000000, -3276.000000)" fill="#8C909D" fill-rule="nonzero" id="icon_comment_hover">
            <path d="M440.752596,3276 C439.206649,3276.02583 437.974457,3277.29378 438.000402,3278.83204 C438.000498,3278.83769 438.00061,3278.84334 438.00074,3278.84899 L438.00074,3290.13058 C438.00074,3291.69753 439.273276,3293.13785 440.816225,3293.13785 L444.999693,3293.13785 C445.715495,3293.91341 448.769573,3295.89187 448.769573,3295.89187 C448.894045,3296.02736 449.105335,3296.0368 449.241503,3295.91295 C449.248875,3295.90624 449.255941,3295.89921 449.26268,3295.89187 C449.26268,3295.89187 451.457808,3294.53069 452.889401,3293.13785 L457.184216,3293.13785 C458.743072,3293.13785 459.9997,3291.69752 459.9997,3290.13058 L459.9997,3278.83316 C460.015607,3277.26622 458.774884,3276 457.263749,3276 L440.752596,3276 Z"></path>
        </g>
    </g>
</svg>