<?xml version="1.0" encoding="UTF-8"?>
<svg width="18px" height="10px" viewBox="0 0 18 10" version="1.1" xmlns="http://www.w3.org/2000/svg" xmlns:xlink="http://www.w3.org/1999/xlink">
    <!-- Generator: Sketch 59.1 (86144) - https://sketch.com -->
    <title>75E3CD57-9C36-4062-BE13-32EA38E7F2DC</title>
    <desc>Created with Sketch.</desc>
    <g id="视觉规范" stroke="none" stroke-width="1" fill="none" fill-rule="evenodd">
        <g transform="translate(-1019.000000, -3281.000000)" fill="#2A3542" fill-rule="nonzero" id="icon_down">
            <g transform="translate(1019.000000, 3281.000000)">
                <g id="向下" transform="translate(9.000000, 5.000000) scale(1, -1) translate(-9.000000, -5.000000) ">
                    <path d="M0.208887869,8.48540293 C-0.0774983544,8.7827124 -0.0682687674,9.25551502 0.229561316,9.54144036 C0.527350011,9.82738636 1.00091474,9.81815096 1.28730097,9.52080018 L8.95220401,1.79825407 L16.7242406,9.48811473 C17.0178491,9.7787714 17.4918277,9.77674664 17.7829943,9.48359001 C18.0740988,9.1904747 18.0720708,8.7172382 17.7784416,8.42656087 L9.51841642,0.253856415 C9.5057516,0.241026034 9.48923768,0.238009552 9.47661425,0.226170892 C9.47379985,0.223361018 9.47301347,0.219559423 9.46999212,0.216584263 L9.46982657,0.216439637 C9.17650781,-0.0739277829 8.70300516,-0.0718616991 8.412149,0.220985021 L0.225670818,8.46852303 C0.219959234,8.47401881 0.214371816,8.47967988 0.208908563,8.48540293 L0.208887869,8.48540293 Z" id="路径"></path>
                </g>
            </g>
        </g>
    </g>
</svg>