<?xml version="1.0" encoding="UTF-8"?>
<svg width="20px" height="20px" viewBox="0 0 20 20" version="1.1" xmlns="http://www.w3.org/2000/svg" xmlns:xlink="http://www.w3.org/1999/xlink">
    <!-- Generator: Sketch 59.1 (86144) - https://sketch.com -->
    <title>33F6BE5D-72BF-4FD8-B6A8-8915FF532084</title>
    <desc>Created with Sketch.</desc>
    <g id="视觉规范" stroke="none" stroke-width="1" fill="none" fill-rule="evenodd">
        <g transform="translate(-471.000000, -3201.000000)" fill="#2A3542" fill-rule="nonzero" id="icon_shanchu_2">
            <g transform="translate(471.000000, 3201.000000)">
                <path d="M11.5050134,9.99969918 L19.6775229,1.88593974 L19.677523,1.88593969 C20.107295,1.45230052 20.107295,0.753327048 19.6775229,0.319687872 C19.2475224,-0.106562624 18.5300216,-0.106562624 18.2437712,0.319687872 L10.0712617,8.57594748 L1.90000222,0.463438039 L1.90000221,0.463438031 C1.46089428,0.0363379242 0.761608308,0.0363379242 0.322500375,0.463438048 C-0.107500125,0.888438543 -0.107500125,1.60093937 0.322500375,1.8859397 L8.49500989,9.99969914 L0.322500375,18.1134586 L0.322500406,18.1134586 C-0.107271578,18.5470977 -0.107271578,19.2460712 0.322500344,19.6797104 C0.752500844,20.1059609 1.47000168,20.1059609 1.75625201,19.6797104 L9.92876152,11.5659509 L18.100021,19.6784604 C18.5300215,20.1059609 19.2475224,20.1059609 19.5337727,19.6784604 L19.5337727,19.6784604 C19.9627185,19.2449696 19.9627185,18.5469493 19.5337727,18.1134586 L11.5050134,9.99969912 L11.5050134,9.99969918 Z" id="路径"></path>
            </g>
        </g>
    </g>
</svg>