<?xml version="1.0" encoding="UTF-8"?>
<svg width="19px" height="15px" viewBox="0 0 19 15" version="1.1" xmlns="http://www.w3.org/2000/svg" xmlns:xlink="http://www.w3.org/1999/xlink">
    <!-- Generator: Sketch 59.1 (86144) - https://sketch.com -->
    <title>1B8CA080-8088-4270-B3EE-2A580759A001</title>
    <desc>Created with Sketch.</desc>
    <g id="视觉规范" stroke="none" stroke-width="1" fill="none" fill-rule="evenodd">
        <g transform="translate(-468.000000, -4227.000000)" fill="#00D6C2" fill-rule="nonzero" id="icon_jingyin_hover">
            <g transform="translate(468.000000, 4227.000000)">
                <path d="M9.17503125,0.416806364 L4.41723485,3.06524708 C4.34304883,3.09492149 4.26638995,3.11223156 4.18973107,3.11223156 L2.22874742,3.11223156 C1.20992615,3.11223156 0.37656992,3.94311492 0.37656992,4.96440906 L0.37656992,9.98680224 C0.37656992,11.0080964 1.20745328,11.8389797 2.22874742,11.8389797 L4.172421,11.8389797 C4.25649848,11.8389797 4.3381031,11.8562898 4.35541317,11.8612355 L9.13299251,14.6778312 C9.4272637,14.8509319 9.75120929,14.9374823 10.072682,14.9374823 C10.389209,14.9374823 10.7032631,14.8558777 10.9925886,14.6901956 C11.5761853,14.3563585 11.9248595,13.7554518 11.9248595,13.0828319 L11.9248595,2.03653435 C11.9248595,1.37133308 11.5836039,0.775372101 11.0123715,0.439062169 C10.4386664,0.102752236 9.75368216,0.0953336344 9.17503125,0.416806364 Z M10.6587515,13.080359 C10.6587515,13.3869946 10.4535036,13.5378395 10.3644803,13.5872968 C10.2754571,13.639227 10.0380619,13.7381417 9.77593797,13.5823511 L4.93900982,10.7385539 C4.69666883,10.6272748 4.43949065,10.5703989 4.172421,10.5703989 L2.22874742,10.5703989 C1.90480182,10.5703989 1.6426779,10.308275 1.6426779,9.98432938 L1.6426779,4.96193619 C1.6426779,4.64046346 1.90480182,4.37833954 2.22874742,4.37833954 L4.18973107,4.37833954 C4.43949065,4.37833954 4.68183163,4.3288822 4.97115709,4.20276597 L9.79077517,1.52465085 C10.055372,1.37627882 10.2853486,1.48013924 10.3718989,1.53206945 C10.4584493,1.58399966 10.6612244,1.73484456 10.6612244,2.03653435 L10.6612244,13.080359 L10.6587515,13.080359 Z M16.9645628,7.27901271 L18.1911049,6.0524706 C18.4383916,5.80518389 18.4383916,5.40457941 18.1911049,5.15729269 C17.9438182,4.91000598 17.5432137,4.91000598 17.295927,5.15729269 L16.0693849,6.3838348 L14.8428428,5.15729269 C14.595556,4.91000598 14.1949516,4.91000598 13.9476649,5.15729269 C13.7003781,5.40457941 13.7003781,5.80518389 13.9476649,6.0524706 L15.174207,7.27901271 L13.9476649,8.50555482 C13.7003781,8.75284153 13.7003781,9.15344601 13.9476649,9.40073273 C14.0713082,9.52437609 14.2320446,9.58619776 14.3952538,9.58619776 C14.558463,9.58619776 14.7191994,9.52437609 14.8428428,9.40073273 L16.0693849,8.17419062 L17.295927,9.40073273 C17.4195703,9.52437609 17.5803067,9.58619776 17.7435159,9.58619776 C17.9067252,9.58619776 18.0674615,9.52437609 18.1911049,9.40073273 C18.4383916,9.15344601 18.4383916,8.75284153 18.1911049,8.50555482 L16.9645628,7.27901271 Z" id="形状"></path>
            </g>
        </g>
    </g>
</svg>