<?xml version="1.0" encoding="UTF-8"?>
<svg width="38px" height="38px" viewBox="0 0 38 38" version="1.1" xmlns="http://www.w3.org/2000/svg" xmlns:xlink="http://www.w3.org/1999/xlink">
    <!-- Generator: Sketch 59.1 (86144) - https://sketch.com -->
    <title>6BAA6ED7-AC86-4ABE-BD67-51C20E05E4DB</title>
    <desc>Created with Sketch.</desc>
    <g id="设计规范" stroke="none" stroke-width="1" fill="none" fill-rule="evenodd">
        <g id="视觉规范" transform="translate(-772.000000, -4329.000000)" fill="#2A3542" fill-rule="nonzero">
            <g id="icon_code_normal" transform="translate(772.000000, 4329.000000)">
                <path d="M0.671552055,17.8595851 L17.9452181,17.8595851 L17.9452181,0.585959924 L0.671552055,0.585959924 L0.671552055,17.8595851 Z M4.98997876,4.90438663 L13.6267913,4.90438663 L13.6267913,13.5411992 L4.98997876,13.5411992 L4.98997876,4.90438663 Z M20.104411,0.586000744 L20.104411,17.8596667 L37.378077,17.8596667 L37.378077,0.586000744 L20.104411,0.586000744 L20.104411,0.586000744 Z M33.0596095,13.5411992 L24.4227969,13.5411992 L24.4227969,4.90438663 L33.0596095,4.90438663 L33.0596095,13.5411992 L33.0596095,13.5411992 Z M7.14913088,11.3820185 L11.4675168,11.3820185 L11.4675168,7.06359182 L7.14913088,7.06359182 L7.14913088,11.3820185 Z M0.671511234,37.2924971 L17.9451772,37.2924971 L17.9451772,20.0188311 L0.671511234,20.0188311 L0.671511234,37.2924971 Z M4.98993794,24.3372578 L13.6267505,24.3372578 L13.6267505,32.9740704 L4.98993794,32.9740704 L4.98993794,24.3372578 Z M30.9004165,7.06359182 L26.5819898,7.06359182 L26.5819898,11.3819777 L30.9004165,11.3819777 L30.9004165,7.06359182 L30.9004165,7.06359182 Z M20.1043702,37.2924971 L24.4227561,37.2924971 L24.4227561,32.9741112 L20.1043702,32.9741112 L20.1043702,37.2924971 L20.1043702,37.2924971 Z M24.4227561,24.3372578 L24.4227561,32.9740704 L28.7411419,32.9740704 L28.7411419,24.3372578 L24.4227561,24.3372578 Z M33.0595686,32.9741112 L28.7411828,32.9741112 L28.7411828,37.2924971 L37.3779954,37.2924971 L37.3779954,28.6556437 L33.0596095,28.6556437 L33.0596095,32.9740704 L33.0595686,32.9741112 Z M33.0595686,24.3372578 L37.3779545,24.3372578 L37.3779545,20.0188719 L33.0595686,20.0188719 L33.0595686,24.3372578 L33.0595686,24.3372578 Z M20.1043702,20.0188719 L20.1043702,24.3372578 L24.4227561,24.3372578 L24.4227561,20.0188719 L20.1043702,20.0188719 L20.1043702,20.0188719 Z M7.14913088,30.8149183 L11.4675168,30.8149183 L11.4675168,26.4965324 L7.14913088,26.4965324 L7.14913088,30.8149183 Z" id="形状"></path>
            </g>
        </g>
    </g>
</svg>