<?xml version="1.0" encoding="UTF-8"?>
<svg width="14px" height="13px" viewBox="0 0 14 13" version="1.1" xmlns="http://www.w3.org/2000/svg" xmlns:xlink="http://www.w3.org/1999/xlink">
    <!-- Generator: Sketch 59.1 (86144) - https://sketch.com -->
    <title>237624BB-6B86-4A1C-B434-FE70F2E44994</title>
    <desc>Created with Sketch.</desc>
    <g id="视觉规范" stroke="none" stroke-width="1" fill="none" fill-rule="evenodd">
        <g transform="translate(-359.000000, -4228.000000)" fill="#FFFFFF" fill-rule="nonzero" id="icon_quanping_normal">
            <g transform="translate(359.000000, 4228.000000)">
                <path d="M0.678704131,4.26209328 L0.678704152,4.26209328 C0.304195931,4.26209328 0.00046581839,3.98037337 4.56030578e-06,3.63257194 L4.56030578e-06,0.628750852 C4.56030578e-06,0.458547355 0.0719751316,0.300001279 0.201689658,0.182646474 L0.201689649,0.182646482 C0.328138412,0.0651720712 0.499847153,-0.000571779333 0.678704143,3.74705058e-06 L3.9131931,3.74705058e-06 L3.91319308,3.74705058e-06 C4.28756653,5.73049943e-05 4.59101183,0.28194422 4.59095904,0.629617909 C4.59090547,0.977221925 4.28749151,1.25899861 3.91319308,1.25904893 L1.35740649,1.25904893 L1.35740649,3.63256937 C1.35740649,3.97997211 1.0527872,4.26209328 0.678706897,4.26209328 L0.678704131,4.26209328 Z M13.3212603,4.26209716 L13.3212603,4.26209716 C12.9470785,4.26166506 12.6438583,3.98007016 12.6433971,3.63257194 L12.6433971,1.2590515 L10.086763,1.2590515 L10.0867629,1.2590515 C9.71238948,1.25900171 9.40894418,0.977114826 9.40899698,0.629441137 C9.40905058,0.281837121 9.71246589,6.04356115e-05 10.0867629,1.01158118e-05 L13.3220994,1.01158118e-05 C13.5028625,1.01158118e-05 13.6727472,0.0652937337 13.800788,0.184203807 L13.800788,0.184203818 C13.9294229,0.301124453 14.0013228,0.461602681 13.9999816,0.628754734 L13.9999816,3.63257582 C13.9999816,3.97997856 13.6953433,4.26209716 13.321263,4.26209716 L13.3212603,4.26209716 Z M0.678704131,12.9999975 L0.678704168,12.9999975 C0.499545692,13.0000626 0.327682597,12.9340956 0.200853296,12.8165818 L0.200853317,12.8165818 C0.0719614137,12.6993768 -0.000469165286,12.5387804 2.28719446e-06,12.3712542 L2.28719446e-06,9.36587188 L2.28719446e-06,9.36587198 C2.28719446e-06,9.01776864 0.303868085,8.73557391 0.678704188,8.73557391 C1.0535389,8.73557391 1.35740378,9.01776735 1.35740378,9.36587198 C1.35740378,9.36587198 1.35740378,9.36587198 1.35740378,9.36587198 L1.35740378,11.7409536 L3.91319037,11.7409536 L3.91319034,11.7409536 C4.2875638,11.7410034 4.5910091,12.0228903 4.5909563,12.370564 C4.59090273,12.718168 4.28748878,12.9999447 3.91319034,12.9999975 L0.678701385,12.9999975 L0.678704131,12.9999975 Z M10.0867713,13 L10.0867713,13 C9.71239784,12.9999477 9.40895254,12.7180608 9.40900533,12.3703871 C9.40905894,12.0227831 9.71247425,11.7410064 10.0867713,11.7409561 L12.6434054,11.7409561 L12.6434054,9.36587445 L12.6434054,9.36587436 C12.6434054,9.0179852 12.9470827,8.73596466 13.3216868,8.73596466 C13.6962909,8.73596466 13.9999682,9.0179852 13.9999682,9.36587436 L13.9999682,12.3712567 L13.9999682,12.3712631 C13.9995025,12.7186349 13.696145,13 13.322098,13 L10.0867616,13 L10.0867713,13 Z" id="形状"></path>
            </g>
        </g>
    </g>
</svg>