<?xml version="1.0" encoding="UTF-8"?>
<svg width="40px" height="31px" viewBox="0 0 40 31" version="1.1" xmlns="http://www.w3.org/2000/svg" xmlns:xlink="http://www.w3.org/1999/xlink">
    <!-- Generator: Sketch 59.1 (86144) - https://sketch.com -->
    <title>114F4656-18D6-48A6-9909-69D2082E4C5F</title>
    <desc>Created with Sketch.</desc>
    <g id="设计规范" stroke="none" stroke-width="1" fill="none" fill-rule="evenodd">
        <g id="视觉规范" transform="translate(-463.000000, -3942.000000)" fill="#2A3542" fill-rule="nonzero">
            <g id="icon_paizhao2" transform="translate(463.000000, 3942.000000)">
                <path d="M36.2017799,3.56074031 L3.17658906,3.56074031 C1.42216667,3.56074031 -1.98951966e-13,4.95772278 -1.98951966e-13,6.68107727 L-1.98951966e-13,26.9211008 C-1.98951966e-13,28.6444553 1.42216667,30.0414378 3.17658906,30.0414378 L36.2017799,30.0414378 C37.9562023,30.0414378 39.378369,28.6444553 39.378369,26.9211008 L39.378369,6.68107727 C39.378369,4.95772278 37.9561143,3.56074031 36.2017799,3.56074031 Z M19.6891007,26.1340163 C14.4417089,26.1340163 10.1879234,21.9554759 10.1879234,16.801089 C10.1879234,11.6466198 14.4417089,7.46816185 19.6891007,7.46816185 C24.9365763,7.46816185 29.1902779,11.6466198 29.1902779,16.801089 C29.1902779,21.9554759 24.9365763,26.1340163 19.6891007,26.1340163 Z" id="形状"></path>
                <path d="M13.0863262,16.801089 L13.0863262,16.80109 C13.0863262,20.3831608 16.042521,23.2870227 19.6891845,23.2870227 C23.3358313,23.2870227 26.2920428,20.3831772 26.2920428,16.80109 L26.2920428,16.80109 C26.2920428,13.2190193 23.3358522,10.3151574 19.6891845,10.3151574 C16.0425377,10.3151574 13.0863262,13.2189987 13.0863262,16.80109 L13.0863262,16.801089 Z" id="路径"></path>
                <path d="M25.1571215,0.75908324 C24.9514158,0.341550397 24.3968881,-1.95399252e-14 23.9246925,-1.95399252e-14 L15.4536765,-1.95399252e-14 C14.9814808,-1.95399252e-14 14.4268647,0.341634813 14.2212475,0.75908324 L12.3934218,4.46950304 C12.1877161,4.88703588 12.4058706,5.22858628 12.878068,5.22858628 L26.5003094,5.22858628 C26.9725051,5.22858628 27.1905728,4.88695146 26.9849556,4.46950304 L25.1571299,0.75908324 L25.1571215,0.75908324 Z M23.1233306,1.8272518 C23.1233306,1.93545143 22.7369887,2.02400153 22.2647931,2.02400153 L17.1135676,2.02400153 C16.6413719,2.02400153 16.25503,1.93545143 16.25503,1.8272518 C16.25503,1.71896776 16.6413719,1.63050201 17.1135676,1.63050201 L22.2647931,1.63050201 C22.7369887,1.63041774 23.1233306,1.71896776 23.1233306,1.8272518 Z" id="形状"></path>
            </g>
        </g>
    </g>
</svg>