<?xml version="1.0" encoding="UTF-8"?>
<svg width="50px" height="50px" viewBox="0 0 50 50" version="1.1" xmlns="http://www.w3.org/2000/svg" xmlns:xlink="http://www.w3.org/1999/xlink">
    <!-- Generator: Sketch 59.1 (86144) - https://sketch.com -->
    <title>C8AFC780-4089-4A2F-A330-4970F82FED62</title>
    <desc>Created with Sketch.</desc>
    <g id="视觉规范" stroke="none" stroke-width="1" fill="none" fill-rule="evenodd">
        <g transform="translate(-346.000000, -4310.000000)" fill="#00D6C2" fill-rule="nonzero" id="icon_play1_hover">
            <g transform="translate(346.000000, 4310.000000)">
                <path d="M25.0000291,1.80664273e-05 C11.1674935,1.80664273e-05 0,11.1675115 0,25.0000472 C0,38.8325828 11.209974,50.0000762 25.0000291,50.0000762 C38.7900842,50.0000762 50.0000798,38.7950827 50.0000798,25.0025374 L50.0000798,25.0023066 C50.0178741,11.2117632 38.8528775,0.0179024925 25.0623342,1.80664273e-05 C25.0414877,1.80664273e-05 25.0206413,1.80664273e-05 24.999795,1.80664273e-05 L25.0000291,1.80664273e-05 Z M25.0000291,46.2800524 C13.2400056,46.2800524 3.7225141,36.7625608 3.7225141,25.0025374 C3.7225141,13.2425139 13.2400056,3.7250224 25.0000291,3.7250224 C36.7600037,3.7250224 46.2775441,13.2425628 46.2775441,25.0025374 C46.2775441,36.762512 36.7600037,46.2800524 25.0000291,46.2800524 Z M34.5600012,23.2676233 L21.660035,15.8225462 C20.3475334,15.0600454 18.6550022,16.0350465 18.6550022,17.557558 L18.6550022,32.4900461 C18.6550022,34.0125576 20.3050041,34.9850685 21.660035,34.2225677 L34.5600012,26.7750492 C35.8725027,25.9775385 35.8725027,24.0275363 34.5600012,23.2675744 L34.5600012,23.2676233 Z" id="形状"></path>
            </g>
        </g>
    </g>
</svg>