<?xml version="1.0" encoding="UTF-8"?>
<svg width="38px" height="33px" viewBox="0 0 38 33" version="1.1" xmlns="http://www.w3.org/2000/svg" xmlns:xlink="http://www.w3.org/1999/xlink">
    <!-- Generator: Sketch 59.1 (86144) - https://sketch.com -->
    <title>88C17317-F5FE-4437-AD20-5DB2BD358C7B</title>
    <desc>Created with Sketch.</desc>
    <g id="设计规范" stroke="none" stroke-width="1" fill="none" fill-rule="evenodd">
        <g id="视觉规范" transform="translate(-410.000000, -4332.000000)" fill="#00D6C2" fill-rule="nonzero">
            <g id="icon_zhuanzhang_hover" transform="translate(410.000000, 4332.000000)">
                <path d="M1.46037628,12.0163882 L17.3627854,0.251573681 C17.3627854,0.251573681 18.4801676,-0.518427215 18.4520058,0.687320282 L15.4022136,8.96620492 C15.4022136,8.96620492 14.6949858,10.1579446 16.0557605,10.0555714 L36.3149911,10.0555714 C36.3149911,10.0555714 37.9482008,9.96573784 37.839885,12.0163624 C37.839885,12.0163624 37.8885786,14.05503 35.8793175,13.9771533 L2.98524017,13.9771533 C2.98524017,13.9771533 1.77399266,14.4431156 1.24254595,13.5414067 C1.24254595,13.5414067 1.20851926,12.6880249 1.46034621,12.0163667 L1.46037628,12.0163882 Z M36.5328858,19.9931592 L20.6334845,31.8204503 C20.6334845,31.8204503 19.5163215,32.5948512 19.5444833,31.3824306 L22.5933946,23.0595459 C22.5933946,23.0595459 23.3004763,21.8614254 21.9399939,21.9643829 L1.68480233,21.9643829 C1.68480233,21.9643829 0.0519621451,22.0547296 0.160200552,19.9931806 C0.160200552,19.9931806 0.111507019,17.943513 2.12040283,18.0219783 L35.0083356,18.0219783 C35.0083356,18.0219783 36.2195101,17.5535239 36.7507377,18.459998 C36.7507377,18.459998 36.7847644,19.317999 36.5329374,19.9931806 L36.5328858,19.9931592 Z" id="形状"></path>
            </g>
        </g>
    </g>
</svg>