<?xml version="1.0" encoding="UTF-8"?>
<svg width="54px" height="54px" viewBox="0 0 54 54" version="1.1" xmlns="http://www.w3.org/2000/svg" xmlns:xlink="http://www.w3.org/1999/xlink">
    <!-- Generator: Sketch 59.1 (86144) - https://sketch.com -->
    <title>98F855D5-CFB8-4245-95E2-45C4D4F1E5AD</title>
    <desc>Created with Sketch.</desc>
    <g id="视觉规范" stroke="none" stroke-width="1" fill="none" fill-rule="evenodd">
        <g transform="translate(-252.000000, -4302.000000)" id="icon_play1_normal">
            <g transform="translate(254.000000, 4304.000000)">
                <path d="M25.0000291,1.80664273e-05 C11.1674935,1.80664273e-05 0,11.1675115 0,25.0000472 C0,38.8325828 11.209974,50.0000762 25.0000291,50.0000762 C38.7900842,50.0000762 50.0000798,38.7950827 50.0000798,25.0025374 L50.0000798,25.0023066 C50.0178741,11.2117632 38.8528775,0.0179024925 25.0623342,1.80664273e-05 C25.0414877,1.80664273e-05 25.0206413,1.80664273e-05 24.999795,1.80664273e-05 L25.0000291,1.80664273e-05 Z" id="形状" stroke="#F8F8F8" stroke-width="4" fill-rule="nonzero"></path>
                <path d="M34.5600012,23.2676233 L21.660035,15.8225462 C20.3475334,15.0600454 18.6550022,16.0350465 18.6550022,17.557558 L18.6550022,32.4900461 C18.6550022,34.0125576 20.3050041,34.9850685 21.660035,34.2225677 L34.5600012,26.7750492 C35.8725027,25.9775385 35.8725027,24.0275363 34.5600012,23.2675744 L34.5600012,23.2676233 Z" id="路径" fill="#F8F8F8"></path>
            </g>
        </g>
    </g>
</svg>