<?xml version="1.0" encoding="UTF-8"?>
<svg width="22px" height="18px" viewBox="0 0 22 18" version="1.1" xmlns="http://www.w3.org/2000/svg" xmlns:xlink="http://www.w3.org/1999/xlink">
    <!-- Generator: Sketch 59.1 (86144) - https://sketch.com -->
    <title>EF63951F-B506-4EAA-89C6-96A11AB6B7CC</title>
    <desc>Created with Sketch.</desc>
    <g id="视觉规范" stroke="none" stroke-width="1" fill="none" fill-rule="evenodd">
        <g transform="translate(-352.000000, -3277.000000)" fill="#E4E4E4" fill-rule="nonzero" id="icon_share1_normal">
            <path d="M352.83644,3294.94152 C352.31409,3294.86438 351.945114,3294.38482 352.006715,3293.85898 C352.483178,3289.35976 354.066571,3286.03562 356.694669,3283.9644 C358.585438,3282.46466 360.983475,3281.62961 363.812085,3281.47533 L364.396664,3281.44383 L364.396664,3278.24377 C364.396664,3276.97609 365.548851,3276.69774 366.163603,3277.31615 L373.341986,3284.65994 C374.249655,3285.58755 374.20314,3286.54603 373.2961,3287.47364 L366.302509,3294.63294 C365.564556,3295.37478 364.396026,3294.92672 364.396026,3293.87503 L364.396026,3290.44292 L363.673159,3290.44292 C361.045056,3290.44292 356.264706,3290.96876 353.758562,3294.50888 C353.605189,3294.80266 353.297813,3294.95758 352.974723,3294.95758 C352.928842,3294.95695 352.882955,3294.95695 352.83644,3294.94152 Z"></path>
        </g>
    </g>
</svg>