<?xml version="1.0" encoding="UTF-8"?>
<svg width="18px" height="15px" viewBox="0 0 18 15" version="1.1" xmlns="http://www.w3.org/2000/svg" xmlns:xlink="http://www.w3.org/1999/xlink">
    <!-- Generator: Sketch 59.1 (86144) - https://sketch.com -->
    <title>EAD6D969-67A6-4511-8F01-CB763F521D4C</title>
    <desc>Created with Sketch.</desc>
    <g id="视觉规范" stroke="none" stroke-width="1" fill="none" fill-rule="evenodd">
        <g transform="translate(-553.000000, -4227.000000)" id="icon_bofang_hover">
            <g transform="translate(553.000000, 4227.000000)">
                <path d="M14,11 C15.6568542,11 17,9.65685425 17,8 C17,6.34314575 15.6568542,5 14,5" id="路径" stroke="#00D6C2" stroke-width="1.1" stroke-linecap="round" stroke-linejoin="round"></path>
                <g id="静音备份-2" fill="#00D6C2" fill-rule="nonzero">
                    <path d="M11.0123715,0.439062169 C10.4386664,0.102752236 9.75368216,0.0953336344 9.17503125,0.416806364 L4.41723485,3.06524708 C4.34304883,3.09492149 4.26638995,3.11223156 4.18973107,3.11223156 L2.22874742,3.11223156 C1.20992615,3.11223156 0.37656992,3.94311492 0.37656992,4.96440906 L0.37656992,9.98680224 C0.37656992,11.0080964 1.20745328,11.8389797 2.22874742,11.8389797 L4.172421,11.8389797 C4.25649848,11.8389797 4.3381031,11.8562898 4.35541317,11.8612355 L9.13299251,14.6778312 C9.4272637,14.8509319 9.75120929,14.9374823 10.072682,14.9374823 C10.389209,14.9374823 10.7032631,14.8558777 10.9925886,14.6901956 C11.5761853,14.3563585 11.9248595,13.7554518 11.9248595,13.0828319 L11.9248595,2.03653435 C11.9248595,1.37133308 11.5836039,0.775372101 11.0123715,0.439062169 L11.0123715,0.439062169 Z M10.6587515,13.080359 C10.6587515,13.3869946 10.4535036,13.5378395 10.3644803,13.5872968 C10.2754571,13.639227 10.0380619,13.7381417 9.77593797,13.5823511 L4.93900982,10.7385539 C4.69666883,10.6272748 4.43949065,10.5703989 4.172421,10.5703989 L2.22874742,10.5703989 C1.90480182,10.5703989 1.6426779,10.308275 1.6426779,9.98432938 L1.6426779,4.96193619 C1.6426779,4.64046346 1.90480182,4.37833954 2.22874742,4.37833954 L4.18973107,4.37833954 C4.43949065,4.37833954 4.68183163,4.3288822 4.97115709,4.20276597 L9.79077517,1.52465085 C10.055372,1.37627882 10.2853486,1.48013924 10.3718989,1.53206945 C10.4584493,1.58399966 10.6612244,1.73484456 10.6612244,2.03653435 L10.6612244,13.080359 L10.6587515,13.080359 Z" id="形状"></path>
                </g>
            </g>
        </g>
    </g>
</svg>