<?xml version="1.0" encoding="UTF-8"?>
<svg width="26px" height="34px" viewBox="0 0 26 34" version="1.1" xmlns="http://www.w3.org/2000/svg" xmlns:xlink="http://www.w3.org/1999/xlink">
    <!-- Generator: Sketch 59.1 (86144) - https://sketch.com -->
    <title>E06DD9AE-7F35-4E4E-B498-36B82E274942</title>
    <desc>Created with Sketch.</desc>
    <g id="视觉规范" stroke="none" stroke-width="1" fill="none" fill-rule="evenodd">
        <g transform="translate(-259.000000, -3125.000000)" fill="#2A3542" fill-rule="nonzero" id="icon_suo_1">
            <g transform="translate(259.000000, 3125.000000)">
                <path d="M23.9012226,14.2548792 L21.4947796,14.2548792 L21.4947796,8.5946041 C21.4947796,3.85528501 17.6872353,0 13.0014437,0 C8.31565217,0 4.50233294,3.85531822 4.50233294,8.5946041 L4.50233294,14.2563401 L2.09877743,14.2563401 C0.940334538,14.2548618 0,15.2039051 0,16.3761691 L0,31.87278 C0,33.0494766 0.938887555,34 2.09877743,34 L23.905557,34 C25.0611124,34 26,33.0494766 26,31.8742575 L26,16.3791076 C26,15.2068469 25.0611124,14.2563235 23.9012226,14.2563235 L23.9012226,14.2548792 Z M14.1801249,24.5302935 L14.1801249,27.9140273 L14.1801249,27.9140261 C14.1793308,28.0685685 14.0566908,28.1934227 13.9056816,28.1934227 L12.1001258,28.1934227 L12.1001258,28.1934227 C11.9483153,28.1942407 11.8243802,28.0693857 11.8227927,27.9140271 L11.8227927,24.5302933 L11.8227924,24.5302932 C10.9485616,24.0892822 10.393157,23.180286 10.3884592,22.1828133 C10.3884592,20.7252478 11.5584585,19.5396793 12.9985699,19.5396793 C14.4430125,19.5396793 15.6130118,20.7252445 15.6130118,22.1828133 L15.6130118,22.1828059 C15.6099458,23.1803483 15.0547425,24.0899355 14.1801288,24.5302891 L14.1801249,24.5302935 Z M18.236122,14.2563733 L7.76677844,14.2563733 L7.76677844,8.73359251 C7.76677844,5.8140256 10.1168897,3.43699164 13.0028777,3.43699164 C15.8888756,3.43699164 18.236122,5.81403888 18.236122,8.73359251 L18.236122,14.2534182 L18.236122,14.2563733 Z" id="形状"></path>
            </g>
        </g>
    </g>
</svg>