<?xml version="1.0" encoding="UTF-8"?>
<svg width="30px" height="23px" viewBox="0 0 30 23" version="1.1" xmlns="http://www.w3.org/2000/svg" xmlns:xlink="http://www.w3.org/1999/xlink">
    <!-- Generator: Sketch 59.1 (86144) - https://sketch.com -->
    <title>32C7D4BD-B591-4160-9A58-AF1FD13F6166</title>
    <desc>Created with Sketch.</desc>
    <g id="视觉规范" stroke="none" stroke-width="1" fill="none" fill-rule="evenodd">
        <g transform="translate(-419.000000, -3131.000000)" fill="#2A3542" fill-rule="nonzero" id="icon_paizhao">
            <g transform="translate(419.000000, 3131.000000)">
                <path d="M27.1513349,2.67055523 L2.3824418,2.67055523 C1.066625,2.67055523 -1.98951966e-13,3.71829208 -1.98951966e-13,5.01080795 L-1.98951966e-13,20.1908256 C-1.98951966e-13,21.4833415 1.066625,22.5310783 2.3824418,22.5310783 L27.1513349,22.5310783 C28.4671517,22.5310783 29.5337767,21.4833415 29.5337767,20.1908256 L29.5337767,5.01080795 C29.5337767,3.71829208 28.4670857,2.67055523 27.1513349,2.67055523 Z M14.7668255,19.6005122 C10.8312817,19.6005122 7.64094258,16.4666069 7.64094258,12.6008168 C7.64094258,8.73496488 10.8312817,5.60112139 14.7668255,5.60112139 C18.7024322,5.60112139 21.8927084,8.73496488 21.8927084,12.6008168 C21.8927084,16.4666069 18.7024322,19.6005122 14.7668255,19.6005122 Z" id="形状"></path>
                <path d="M9.81474465,12.6008168 L9.81474465,12.6008175 C9.81474465,15.2873706 12.0318907,17.465267 14.7668884,17.465267 C17.5018735,17.465267 19.7190321,15.2873829 19.7190321,12.6008175 L19.7190321,12.6008175 C19.7190321,9.91426447 17.5018892,7.73636801 14.7668884,7.73636801 C12.0319033,7.73636801 9.81474465,9.91424903 9.81474465,12.6008175 L9.81474465,12.6008168 Z" id="路径"></path>
                <path d="M18.8678411,0.56931243 C18.7135619,0.256162798 18.2976661,-1.95399252e-14 17.9435194,-1.95399252e-14 L11.5902574,-1.95399252e-14 C11.2361106,-1.95399252e-14 10.8201485,0.25622611 10.6659356,0.56931243 L9.29506636,3.35212728 C9.14078709,3.66527691 9.30440296,3.92143971 9.65855097,3.92143971 L19.8752321,3.92143971 C20.2293788,3.92143971 20.3929296,3.6652136 20.2387167,3.35212728 L18.8678474,0.56931243 L18.8678411,0.56931243 Z M17.342498,1.37043885 C17.342498,1.45158857 17.0527415,1.51800115 16.6985948,1.51800115 L12.8351757,1.51800115 C12.4810289,1.51800115 12.1912725,1.45158857 12.1912725,1.37043885 C12.1912725,1.28922582 12.4810289,1.22287651 12.8351757,1.22287651 L16.6985948,1.22287651 C17.0527415,1.2228133 17.342498,1.28922582 17.342498,1.37043885 Z" id="形状"></path>
            </g>
        </g>
    </g>
</svg>