<?xml version="1.0" encoding="UTF-8"?>
<svg width="20px" height="20px" viewBox="0 0 20 20" version="1.1" xmlns="http://www.w3.org/2000/svg" xmlns:xlink="http://www.w3.org/1999/xlink">
    <!-- Generator: Sketch 61.2 (89653) - https://sketch.com -->
    <title>1B6E12A9-52D9-4C81-869A-00C9A4510B33</title>
    <desc>Created with Sketch.</desc>
    <g id="设计规范" stroke="none" stroke-width="1" fill="none" fill-rule="evenodd">
        <g id="视觉规范" transform="translate(-655.000000, -4254.000000)" fill="#E4E4E4" fill-rule="nonzero">
            <path d="M673.547353,4265.06113 C673.425131,4264.97965 673.343648,4264.9389 673.302908,4264.85742 C673.058463,4264.69446 672.895501,4264.45002 672.895501,4264.12409 L672.895501,4263.30927 C672.895501,4263.02409 673.058464,4262.7389 673.302908,4262.57594 C673.343649,4262.49446 673.425131,4262.41297 673.547353,4262.37223 C674.199205,4262.00557 674.606614,4261.31297 674.565872,4260.57964 C674.117723,4259.35741 673.465871,4258.25741 672.56958,4257.27963 C671.917728,4256.87223 671.102911,4256.83148 670.410312,4257.19815 C670.288089,4257.27963 670.165867,4257.27963 670.084385,4257.32037 C669.7992,4257.4426 669.473273,4257.4426 669.228828,4257.32037 L668.454754,4256.91297 C668.169569,4256.75 668.006604,4256.50556 668.006604,4256.22037 C667.965864,4256.13889 667.925123,4256.05741 667.925123,4255.89445 C667.925123,4255.12037 667.476973,4254.50926 666.784381,4254.18333 C665.439935,4253.93889 664.095489,4253.93889 662.751043,4254.18333 C662.058449,4254.50926 661.610302,4255.16111 661.610302,4255.89445 C661.610302,4256.01667 661.569561,4256.13889 661.52882,4256.22037 C661.52882,4256.50556 661.365857,4256.79075 661.080671,4256.91297 L660.306597,4257.32037 C660.021412,4257.48334 659.695485,4257.48334 659.45104,4257.32037 C659.369558,4257.32037 659.247335,4257.27963 659.125113,4257.19815 C658.473261,4256.83149 657.658445,4256.87223 657.006599,4257.27963 C656.110302,4258.21667 655.458448,4259.31668 655.010306,4260.5389 C654.928825,4261.27224 655.336233,4262.00557 656.028825,4262.37224 C656.151048,4262.41298 656.23253,4262.49446 656.27327,4262.57594 C656.517715,4262.73891 656.680677,4262.98335 656.680677,4263.30928 L656.680677,4264.12409 C656.680677,4264.40928 656.517714,4264.69447 656.27327,4264.85743 C656.232529,4264.93891 656.151048,4265.02039 656.028825,4265.06113 C655.376973,4265.4278 654.969564,4266.12039 655.010306,4266.85373 C655.458456,4268.07595 656.110308,4269.17595 657.006599,4270.15373 C657.65845,4270.56114 658.473267,4270.60188 659.125113,4270.23521 C659.247335,4270.15373 659.369558,4270.15373 659.45104,4270.11299 C659.736225,4269.99077 660.062152,4269.99077 660.306597,4270.11299 L661.080671,4270.5204 C661.365856,4270.68336 661.52882,4270.92781 661.52882,4271.21299 C661.569561,4271.29447 661.610302,4271.37596 661.610302,4271.53892 C661.610302,4272.31299 662.099191,4272.96485 662.751043,4273.25003 C664.095489,4273.49448 665.439935,4273.49448 666.743647,4273.25003 C667.395499,4272.92411 667.884388,4272.27225 667.884388,4271.53892 C667.884388,4271.4167 667.925129,4271.29447 667.96587,4271.21299 C667.96587,4270.92781 668.128833,4270.64262 668.414019,4270.5204 L669.188094,4270.11299 C669.473279,4269.95003 669.799205,4269.95003 670.04365,4270.11299 C670.125132,4270.11299 670.247355,4270.15373 670.369577,4270.23521 C671.062171,4270.60188 671.876986,4270.56114 672.528845,4270.15373 C673.425142,4269.21669 674.076996,4268.11669 674.525138,4266.89446 C674.606619,4266.16113 674.239953,4265.42779 673.547359,4265.06113 L673.547353,4265.06113 Z M664.788077,4266.69076 C663.158446,4266.69076 661.85474,4265.34631 661.85474,4263.71669 C661.85474,4262.08706 663.158446,4260.74262 664.788077,4260.74262 C666.417708,4260.74262 667.721414,4262.08706 667.721414,4263.71669 C667.721414,4265.34632 666.417708,4266.69076 664.788077,4266.69076 L664.788077,4266.69076 Z" id="icon_shezhi_normal"></path>
        </g>
    </g>
</svg>