<?xml version="1.0" encoding="UTF-8"?>
<svg width="15px" height="12px" viewBox="0 0 15 12" version="1.1" xmlns="http://www.w3.org/2000/svg" xmlns:xlink="http://www.w3.org/1999/xlink">
    <!-- Generator: Sketch 59.1 (86144) - https://sketch.com -->
    <title>DCA2CB7A-BB99-480D-91F9-F1F66F5E1C96</title>
    <desc>Created with Sketch.</desc>
    <g id="视觉规范" stroke="none" stroke-width="1" fill="none" fill-rule="evenodd">
        <g transform="translate(-830.000000, -3422.000000)" fill="#2A3542" fill-rule="nonzero" id="icon_more1">
            <path d="M844.799107,3423.21348 L830.200893,3423.21348 C830.089943,3423.21348 830,3423.12293 830,3423.01124 L830,3422.20225 C830,3422.09055 830.089943,3422 830.200893,3422 L844.799107,3422 C844.910057,3422 845,3422.09055 845,3422.20225 L845,3423.01124 C845,3423.12293 844.910057,3423.21348 844.799107,3423.21348 Z M844.799107,3428.60674 L830.200893,3428.60674 C830.089943,3428.60674 830,3428.51619 830,3428.40449 L830,3427.59551 C830,3427.48381 830.089943,3427.39326 830.200893,3427.39326 L844.799107,3427.39326 C844.910057,3427.39326 845,3427.48381 845,3427.59551 L845,3428.40449 C845,3428.51619 844.910057,3428.60674 844.799107,3428.60674 Z M844.799107,3434 L830.200893,3434 C830.089943,3434 830,3433.90945 830,3433.79775 L830,3432.98876 C830,3432.87707 830.089943,3432.78652 830.200893,3432.78652 L844.799107,3432.78652 C844.910057,3432.78652 845,3432.87707 845,3432.98876 L845,3433.79775 C845,3433.90945 844.910057,3434 844.799107,3434 Z"></path>
        </g>
    </g>
</svg>